<svg id="_x33_0" enable-background="new 0 0 64 64" height="512" viewBox="0 0 64 64" width="512" xmlns="http://www.w3.org/2000/svg"><g><g><g><path d="m45 21c-2.206 0-4-1.794-4-4 0-4.411 3.589-8 8-8 2.206 0 4 1.794 4 4 0 4.411-3.589 8-8 8z" fill="#f0bc5e"/></g></g><g><path d="m19 50h7v-6.56c0-1.541-.252-3.036-.721-4.44h-8.279v10.706c.634.189 1.305.294 2 .294z" fill="#f0bc5e"/></g><g><circle cx="18" cy="14.001" r="1"/><path d="m59 29.671c0-.992.172-1.968.511-2.9l2.661-7.318c.549-1.51.828-3.092.828-4.7 0-7.583-6.17-13.753-13.753-13.753-6.278 0-11.454 4.911-11.784 11.18l-.496 9.422 2.107 1.054.398 3.187c.368 2.939 2.88 5.157 5.843 5.157.546 0 1.09-.076 1.618-.227l2.06-.589c-.017.871-.402 1.687-1.073 2.246l-.962.802c-2.516 2.098-3.958 5.178-3.958 8.452v9.022c-1.322-.402-2.34-1.504-2.613-2.868l-.183-.915c-.222-1.114-1.208-1.923-2.344-1.923-.912 0-1.731.507-2.138 1.321l-.222.441c-.162.323-.714.263-.801-.088l-.41-1.641c-.299-1.197-1.37-2.033-2.604-2.033-1.481 0-2.685 1.204-2.685 2.685 0 .462.039.918.094 1.372-.194-.034-.392-.057-.594-.057-.533 0-1.042.127-1.5.349v-3.909c0-6.438-3.988-12.04-10-14.166v-2.314c1.021-.095 1.973-.518 2.707-1.253.834-.833 1.293-1.941 1.293-3.121v-1.865l3-1v-.721c0-3.771-1.584-7.067-2.52-8.685 1.498-.864 2.52-2.464 2.52-4.315 0-2.757-2.243-5-5-5h-4.877c-2.619 0-4.924 1.61-5.853 4h-.734-.001c-1.211 0-2.35.472-3.206 1.328-.857.857-1.329 1.996-1.329 3.208 0 .218.033.43.063.643-1.3 1.179-2.063 2.867-2.063 4.639 0 1.674.652 3.248 1.835 4.431l.165.165v.496c0 2.288 1.271 4.344 3.317 5.367l2.683 1.341v2.69l-.803.302c-4.305 1.616-7.197 5.792-7.197 10.39 0 1.302.839 2.402 2 2.816v1.184c0 2.713.735 5.253 2 7.451v11.549h22v-6h4c1.376 0 2.592-.699 3.312-1.761l.794.556c2.368 1.657 5.063 2.686 7.894 3.049v4.156h18v-13.58c1.27-2.442 2-5.209 2-8.147v-.198c0-2.209-.76-4.375-2.14-6.1-1.199-1.5-1.86-3.384-1.86-5.304zm-54 13.329h6c0 1.512.429 2.922 1.161 4.129l-.095.071c-1.547 1.161-3.465 1.8-5.4 1.8h-.663c-.644-1.54-1.003-3.229-1.003-5zm8.267 5.8.131-.098c.986.969 2.224 1.678 3.602 2.035v.263c0 2.124-.99 4.149-2.647 5.47-3.046-.892-5.625-2.87-7.3-5.486 2.232-.08 4.425-.843 6.214-2.184zm5.733 2.2h6v5c0 .551-.449 1-1 1h-6c-.423 0-.84-.024-1.253-.063 1.427-1.629 2.253-3.741 2.253-5.937zm2.978-32.713-2.978.993v1.72h-.764c-.998 0-1.895-.555-2.341-1.447l-1.789.895c.788 1.575 2.37 2.553 4.13 2.553h.723c-.086.485-.315.942-.666 1.293-.456.456-1.062.706-1.707.706h-3.586v2h2v3.744l.712.214c.959.288 1.859.681 2.699 1.155-1.421.572-2.948.887-4.48.887h-.459c-1.575 0-3.076-.606-4.216-1.653l1.744-.655v-11.278c0-.534-.208-1.036-.586-1.414l-1-1c-.263-.263-.414-.628-.414-1 0-.551.449-1 1-1h1v-2.527c0-1.13.622-2.146 1.623-2.663.549.719 1.405 1.19 2.377 1.19h4c.18 0 .351-.035.526-.053.689 1.126 2.249 4.007 2.452 7.34zm-14.767 5.2c-1.364-.681-2.211-2.052-2.211-3.577v-1.324l-.75-.75c-.806-.806-1.25-1.878-1.25-3.018 0-.95.327-1.863.896-2.602.135.182.27.364.433.527l.964.964 1.414-1.414-.964-.964c-.479-.479-.743-1.116-.743-1.793s.264-1.314.743-1.793c.478-.479 1.115-.743 1.792-.743h2.245l.19-.757c.478-1.909 2.185-3.243 4.153-3.243h4.877c1.654 0 3 1.346 3 3s-1.346 3-3 3h-4c-.551 0-1-.449-1-1s.449-1 1-1h1v-2h-1c-1.612 0-2.921 1.28-2.987 2.876l-.249.124c-1.705.854-2.764 2.567-2.764 4.473v.699c-1.164.412-2 1.524-2 2.828 0 .912.355 1.77 1 2.414l1 1v4.968zm.137 8.778c1.551 1.725 3.778 2.735 6.124 2.735h.459c2.163 0 4.328-.511 6.261-1.478l.158-.079c2.894 2.413 4.65 6.02 4.65 9.997v5.56h-6c-3.309 0-6-2.691-6-6v-.184c1.161-.414 2-1.514 2-2.816 0-.808-.191-1.618-.553-2.342l-.553-1.105-1.789.895.553 1.105c.224.447.342.947.342 1.447 0 .551-.449 1-1 1h-8c-.551 0-1-.449-1-1 0-3.181 1.7-6.099 4.348-7.735zm-.348 28.735v-6.837c2.742 2.966 6.652 4.837 11 4.837h6c.352 0 .686-.072 1-.184v2.184zm24-6h-4v-4.764l.224-.447c.243-.487.732-.789 1.276-.789s1.033.302 1.276.789l.606 1.211h.618c1.103 0 2 .897 2 2s-.897 2-2 2zm28 6h-14v-2.01c.091.001.181.01.273.01 5.53 0 10.474-2.548 13.727-6.528zm2-19.727c0 8.672-7.055 15.727-15.727 15.727-3.244 0-6.362-.983-9.02-2.843l-1.28-.896c.006-.088.027-.172.027-.261 0-1.986-1.456-3.639-3.356-3.948l-.035-.07.001-.001c-.404-1.055-.61-2.164-.61-3.296 0-.378.307-.685.685-.685.315 0 .588.213.664.519l.41 1.641c.271 1.083 1.24 1.84 2.357 1.84.926 0 1.759-.515 2.173-1.342l.221-.442c.149-.3.667-.231.733.099l.183.916c.436 2.179 2.11 3.935 4.268 4.475.786.194 1.594.294 2.402.294 5.461 0 9.904-4.443 9.904-9.904v-2.096h-2v2.096c0 4.359-3.545 7.904-7.904 7.904-.032 0-.064-.006-.096-.006v-3.994h2.764c1.76 0 3.343-.978 4.13-2.553l-1.789-.895c-.446.893-1.343 1.448-2.341 1.448h-2.764v-3.316c0-2.679 1.18-5.199 3.238-6.914l.962-.802c1.144-.953 1.8-2.353 1.8-3.842v-.515l2.275-.65-.55-1.923-6.341 1.812c-.348.1-.708.15-1.069.15-1.816 0-3.359-1.267-3.769-3h.506c1.4 0 2.783-.225 4.111-.667l1.153-.384-.633-1.897-1.153.384c-1.123.374-2.293.564-3.477.564h-.795l-.332-2.655-1.893-.946.427-8.113c.274-5.207 4.573-9.286 9.787-9.286 6.481 0 11.753 5.272 11.753 11.753 0 1.374-.238 2.725-.708 4.016l-2.661 7.318c-.419 1.152-.631 2.358-.631 3.585 0 2.372.816 4.699 2.298 6.552 1.098 1.371 1.702 3.094 1.702 4.851z"/><circle cx="48" cy="42" r="1"/></g></g></svg>