<?xml version="1.0" encoding="UTF-8" standalone="no"?>
<svg
   xmlns:dc="http://purl.org/dc/elements/1.1/"
   xmlns:cc="http://creativecommons.org/ns#"
   xmlns:rdf="http://www.w3.org/1999/02/22-rdf-syntax-ns#"
   xmlns:svg="http://www.w3.org/2000/svg"
   xmlns="http://www.w3.org/2000/svg"
   xmlns:sodipodi="http://sodipodi.sourceforge.net/DTD/sodipodi-0.dtd"
   xmlns:inkscape="http://www.inkscape.org/namespaces/inkscape"
   id="_x33_0"
   enable-background="new 0 0 64 64"
   height="512"
   viewBox="0 0 64 64"
   width="512"
   version="1.1"
   sodipodi:docname="miscellaneous.svg"
   inkscape:version="0.92.4 (unknown)">
  <metadata
     id="metadata27">
    <rdf:RDF>
      <cc:Work
         rdf:about="">
        <dc:format>image/svg+xml</dc:format>
        <dc:type
           rdf:resource="http://purl.org/dc/dcmitype/StillImage" />
      </cc:Work>
    </rdf:RDF>
  </metadata>
  <defs
     id="defs25" />
  <sodipodi:namedview
     pagecolor="#ffffff"
     bordercolor="#666666"
     borderopacity="1"
     objecttolerance="10"
     gridtolerance="10"
     guidetolerance="10"
     inkscape:pageopacity="0"
     inkscape:pageshadow="2"
     inkscape:window-width="1366"
     inkscape:window-height="711"
     id="namedview23"
     showgrid="false"
     inkscape:zoom="0.4609375"
     inkscape:cx="32.542373"
     inkscape:cy="256"
     inkscape:window-x="0"
     inkscape:window-y="29"
     inkscape:window-maximized="1"
     inkscape:current-layer="_x33_0" />
  <g
     id="g20">
    <g
       id="g6">
      <g
         id="g4">
        <path
           d="m 45,21 c -2.206,0 -4,-1.794 -4,-4 0,-4.411 3.589,-8 8,-8 2.206,0 4,1.794 4,4 0,4.411 -3.589,8 -8,8 z"
           id="path2"
           inkscape:connector-curvature="0"
           style="fill:#f0bc5e" />
      </g>
    </g>
    <g
       id="g10">
      <path
         d="m 19,50 h 7 V 43.44 C 26,41.899 25.748,40.404 25.279,39 H 17 V 49.706 C 17.634,49.895 18.305,50 19,50 Z"
         id="path8"
         inkscape:connector-curvature="0"
         style="fill:#f0bc5e" />
    </g>
    <g
       id="g18">
      <circle
         cx="18"
         cy="14.001"
         r="1"
         id="circle12"
         style="fill:#ffffff" />
      <path
         d="m 59,29.671 c 0,-0.992 0.172,-1.968 0.511,-2.9 l 2.661,-7.318 C 62.721,17.943 63,16.361 63,14.753 63,7.17 56.83,1 49.247,1 42.969,1 37.793,5.911 37.463,12.18 l -0.496,9.422 2.107,1.054 0.398,3.187 c 0.368,2.939 2.88,5.157 5.843,5.157 0.546,0 1.09,-0.076 1.618,-0.227 l 2.06,-0.589 c -0.017,0.871 -0.402,1.687 -1.073,2.246 l -0.962,0.802 C 44.442,35.33 43,38.41 43,41.684 v 9.022 C 41.678,50.304 40.66,49.202 40.387,47.838 L 40.204,46.923 C 39.982,45.809 38.996,45 37.86,45 c -0.912,0 -1.731,0.507 -2.138,1.321 L 35.5,46.762 c -0.162,0.323 -0.714,0.263 -0.801,-0.088 l -0.41,-1.641 C 33.99,43.836 32.919,43 31.685,43 30.204,43 29,44.204 29,45.685 c 0,0.462 0.039,0.918 0.094,1.372 C 28.9,47.023 28.702,47 28.5,47 27.967,47 27.458,47.127 27,47.349 V 43.44 C 27,37.002 23.012,31.4 17,29.274 V 26.96 c 1.021,-0.095 1.973,-0.518 2.707,-1.253 C 20.541,24.874 21,23.766 21,22.586 v -1.865 l 3,-1 V 19 C 24,15.229 22.416,11.933 21.48,10.315 22.978,9.451 24,7.851 24,6 24,3.243 21.757,1 19,1 H 14.123 C 11.504,1 9.199,2.61 8.27,5 H 7.536 7.535 C 6.324,5 5.185,5.472 4.329,6.328 3.472,7.185 3,8.324 3,9.536 3,9.754 3.033,9.966 3.063,10.179 1.763,11.358 1,13.046 1,14.818 c 0,1.674 0.652,3.248 1.835,4.431 L 3,19.414 v 0.496 c 0,2.288 1.271,4.344 3.317,5.367 L 9,26.618 v 2.69 L 8.197,29.61 C 3.892,31.226 1,35.402 1,40 c 0,1.302 0.839,2.402 2,2.816 V 44 c 0,2.713 0.735,5.253 2,7.451 V 63 h 22 v -6 h 4 c 1.376,0 2.592,-0.699 3.312,-1.761 l 0.794,0.556 c 2.368,1.657 5.063,2.686 7.894,3.049 V 63 H 61 V 49.42 c 1.27,-2.442 2,-5.209 2,-8.147 V 41.075 C 63,38.866 62.24,36.7 60.86,34.975 59.661,33.475 59,31.591 59,29.671 Z M 5,43 h 6 c 0,1.512 0.429,2.922 1.161,4.129 L 12.066,47.2 C 10.519,48.361 8.601,49 6.666,49 H 6.003 C 5.359,47.46 5,45.771 5,44 Z m 8.267,5.8 0.131,-0.098 c 0.986,0.969 2.224,1.678 3.602,2.035 V 51 c 0,2.124 -0.99,4.149 -2.647,5.47 -3.046,-0.892 -5.625,-2.87 -7.3,-5.486 2.232,-0.08 4.425,-0.843 6.214,-2.184 z M 19,51 h 6 v 5 c 0,0.551 -0.449,1 -1,1 H 18 C 17.577,57 17.16,56.976 16.747,56.937 18.174,55.308 19,53.196 19,51 Z M 21.978,18.287 19,19.28 V 21 h -0.764 c -0.998,0 -1.895,-0.555 -2.341,-1.447 l -1.789,0.895 c 0.788,1.575 2.37,2.553 4.13,2.553 h 0.723 c -0.086,0.485 -0.315,0.942 -0.666,1.293 C 17.837,24.75 17.231,25 16.586,25 H 13 v 2 h 2 v 3.744 l 0.712,0.214 c 0.959,0.288 1.859,0.681 2.699,1.155 C 16.99,32.685 15.463,33 13.931,33 H 13.472 C 11.897,33 10.396,32.394 9.256,31.347 L 11,30.692 V 19.414 C 11,18.88 10.792,18.378 10.414,18 l -1,-1 C 9.151,16.737 9,16.372 9,16 9,15.449 9.449,15 10,15 h 1 V 12.473 C 11,11.343 11.622,10.327 12.623,9.81 13.172,10.529 14.028,11 15,11 h 4 c 0.18,0 0.351,-0.035 0.526,-0.053 0.689,1.126 2.249,4.007 2.452,7.34 z m -14.767,5.2 C 5.847,22.806 5,21.435 5,19.91 V 18.586 L 4.25,17.836 C 3.444,17.03 3,15.958 3,14.818 c 0,-0.95 0.327,-1.863 0.896,-2.602 0.135,0.182 0.27,0.364 0.433,0.527 L 5.293,13.707 6.707,12.293 5.743,11.329 C 5.264,10.85 5,10.213 5,9.536 5,8.859 5.264,8.222 5.743,7.743 6.221,7.264 6.858,7 7.535,7 H 9.78 L 9.97,6.243 C 10.448,4.334 12.155,3 14.123,3 H 19 c 1.654,0 3,1.346 3,3 0,1.654 -1.346,3 -3,3 H 15 C 14.449,9 14,8.551 14,8 14,7.449 14.449,7 15,7 h 1 V 5 H 15 C 13.388,5 12.079,6.28 12.013,7.876 L 11.764,8 C 10.059,8.854 9,10.567 9,12.473 v 0.699 C 7.836,13.584 7,14.696 7,16 c 0,0.912 0.355,1.77 1,2.414 l 1,1 v 4.968 z m 0.137,8.778 C 8.899,33.99 11.126,35 13.472,35 h 0.459 c 2.163,0 4.328,-0.511 6.261,-1.478 L 20.35,33.443 C 23.244,35.856 25,39.463 25,43.44 V 49 h -6 c -3.309,0 -6,-2.691 -6,-6 v -0.184 c 1.161,-0.414 2,-1.514 2,-2.816 0,-0.808 -0.191,-1.618 -0.553,-2.342 l -0.553,-1.105 -1.789,0.895 0.553,1.105 C 12.882,39 13,39.5 13,40 c 0,0.551 -0.449,1 -1,1 H 4 C 3.449,41 3,40.551 3,40 3,36.819 4.7,33.901 7.348,32.265 Z M 7,61 V 54.163 C 9.742,57.129 13.652,59 18,59 h 6 c 0.352,0 0.686,-0.072 1,-0.184 V 61 Z m 24,-6 h -4 v -4.764 l 0.224,-0.447 C 27.467,49.302 27.956,49 28.5,49 c 0.544,0 1.033,0.302 1.276,0.789 L 30.382,51 H 31 c 1.103,0 2,0.897 2,2 0,1.103 -0.897,2 -2,2 z m 28,6 H 45 V 58.99 C 45.091,58.991 45.181,59 45.273,59 50.803,59 55.747,56.452 59,52.472 Z M 61,41.273 C 61,49.945 53.945,57 45.273,57 c -3.244,0 -6.362,-0.983 -9.02,-2.843 l -1.28,-0.896 C 34.979,53.173 35,53.089 35,53 35,51.014 33.544,49.361 31.644,49.052 l -0.035,-0.07 10e-4,-10e-4 C 31.206,47.926 31,46.817 31,45.685 31,45.307 31.307,45 31.685,45 c 0.315,0 0.588,0.213 0.664,0.519 l 0.41,1.641 c 0.271,1.083 1.24,1.84 2.357,1.84 0.926,0 1.759,-0.515 2.173,-1.342 l 0.221,-0.442 c 0.149,-0.3 0.667,-0.231 0.733,0.099 l 0.183,0.916 c 0.436,2.179 2.11,3.935 4.268,4.475 C 43.48,52.9 44.288,53 45.096,53 50.557,53 55,48.557 55,43.096 V 41 h -2 v 2.096 C 53,47.455 49.455,51 45.096,51 45.064,51 45.032,50.994 45,50.994 V 47 h 2.764 c 1.76,0 3.343,-0.978 4.13,-2.553 L 50.105,43.552 C 49.659,44.445 48.762,45 47.764,45 H 45 v -3.316 c 0,-2.679 1.18,-5.199 3.238,-6.914 L 49.2,33.968 C 50.344,33.015 51,31.615 51,30.126 v -0.515 l 2.275,-0.65 -0.55,-1.923 -6.341,1.812 C 46.036,28.95 45.676,29 45.315,29 43.499,29 41.956,27.733 41.546,26 h 0.506 c 1.4,0 2.783,-0.225 4.111,-0.667 l 1.153,-0.384 -0.633,-1.897 -1.153,0.384 C 44.407,23.81 43.237,24 42.053,24 H 41.258 L 40.926,21.345 39.033,20.399 39.46,12.286 C 39.734,7.079 44.033,3 49.247,3 55.728,3 61,8.272 61,14.753 c 0,1.374 -0.238,2.725 -0.708,4.016 l -2.661,7.318 C 57.212,27.239 57,28.445 57,29.672 c 0,2.372 0.816,4.699 2.298,6.552 1.098,1.371 1.702,3.094 1.702,4.851 z"
         id="path14"
         style="fill:#ffffff"
         inkscape:connector-curvature="0" />
      <circle
         cx="48"
         cy="42"
         r="1"
         id="circle16"
         style="fill:#ffffff" />
    </g>
  </g>
</svg>
