<svg id="Layer_5" enable-background="new 0 0 64 64" height="512" viewBox="0 0 64 64" width="512" xmlns="http://www.w3.org/2000/svg"><path d="m9 9h18v21h-18z" fill="#f0bc5e"/><path d="m9 9h2v2h-2z"/><path d="m13 9h14v2h-14z"/><path d="m9 13h18v2h-18z"/><path d="m9 17h18v2h-18z"/><path d="m9 21h18v2h-18z"/><path d="m9 25h14.089v2h-14.089z"/><path d="m25.089 25h1.911v2h-1.911z"/><path d="m9 29h18v2h-18z"/><path d="m39 9h2v2h-2z"/><path d="m55 15h-2v-4h-10v-2h10c1.103 0 2 .897 2 2z"/><path d="m35 9h2v2h-2z"/><path d="m63 6.586-5.586-5.586h-56.414v40.414l5.586 5.586h22.896l-2.692 14h3.544l3.308-2.481 1.613 3.227 3.562 1.781 2.066-16.527h2.187l1.974 16.494 3.708-1.743 1.504-3.213 3.283 2.462h3.672l-2.692-14h8.481zm-21.867 38.414.25-2h1.208l.239 2zm13.073 14-4.718-3.538-2.24 4.787-.548.257-2.707-22.625-1.986.238.345 2.881h-.719l.359-2.876-1.984-.248-2.825 22.598-.438-.219-2.387-4.773-4.691 3.518h-.457l4.771-24.812-1.964-.377-1.381 7.189h-22.222l-1.414-1.414v-32.586h48.586l1.414 1.414v32.586h-3.636l-1.382-7.188-1.964.377 4.772 24.811zm6.794-14h-6.866l-.385-2h5.251v-35.414l-2.586-2.586h-51.414v35.414l2.586 2.586h22.665l-.385 2h-22.452l-4.414-4.414v-37.586h53.586l4.414 4.414z"/><path d="m42 39c-7.168 0-13-5.832-13-13s5.832-13 13-13 13 5.832 13 13-5.832 13-13 13z" fill="#f0bc5e"/><path d="m42 25c-1.103 0-2-.897-2-2v-2h2c1.103 0 2 .897 2 2h2c0-1.859-1.28-3.411-3-3.858v-2.142h-2v2h-3v4c0 2.206 1.794 4 4 4 1.103 0 2 .897 2 2v2h-2c-1.103 0-2-.897-2-2h-2c0 1.859 1.28 3.411 3 3.858v2.142h2v-2h3v-4c0-2.206-1.794-4-4-4z"/><path d="m49 25h2v2h-2z"/><path d="m33 25h2v2h-2z"/></svg>